<svg width="1001" height="1000" viewBox="0 0 1001 1000" fill="none" xmlns="http://www.w3.org/2000/svg">
<path d="M259.008 483.966L594.576 548.739C723.538 573.628 694.434 713.359 600.57 725.65H347.921V629.273H362.264C366.388 629.273 369.933 627.225 371.996 623.651C374.06 620.079 374.224 615.885 371.996 612.413L312.917 520.411C308.139 512.976 298.232 512.968 293.456 520.411L234.38 612.413C232.152 615.883 232.314 620.079 234.377 623.653C236.438 627.228 239.983 629.273 244.109 629.273H259.328V815.732H590.789C801.125 814.964 837.186 523.309 623.81 465.779L347.673 412.772V272.459H560.292C600.605 272.459 625.881 300.691 632.427 337.704L621.464 336.363C617.37 335.859 613.553 336.966 610.87 340.099C608.187 343.231 607.182 347.36 608.804 351.145L651.546 451.204C655.056 459.403 664.583 461.389 670.679 454.773L744.211 375.018C747.007 371.985 747.646 367.864 746.275 363.972C744.904 360.08 741.828 357.214 737.741 356.664L724.298 354.86C727.029 261.394 670.509 184.274 547.371 184.274H259.008V483.966Z" fill="url(#paint0_linear_47_2)"/>
<defs>
<linearGradient id="paint0_linear_47_2" x1="232.769" y1="184.274" x2="232.769" y2="815.732" gradientUnits="userSpaceOnUse">
<stop stop-color="#33378A"/>
<stop offset="1" stop-color="#714994"/>
</linearGradient>
</defs>
</svg>
